<?xml version='1.0' encoding='UTF-8'?>
<svg version="1.1" xmlns="http://www.w3.org/2000/svg" xmlns:xlink="http://www.w3.org/1999/xlink" viewBox="0 0 992 1082" stroke="#000000" stroke-width="2" stroke-linecap="square"><line x1="1" y1="1" x2="991" y2="1" /><line x1="1" y1="121" x2="991" y2="121" /><line x1="1" y1="241" x2="991" y2="241" /><line x1="1" y1="361" x2="991" y2="361" /><line x1="1" y1="481" x2="991" y2="481" /><line x1="1" y1="601" x2="991" y2="601" /><line x1="1" y1="721" x2="991" y2="721" /><line x1="1" y1="841" x2="991" y2="841" /><line x1="1" y1="961" x2="991" y2="961" /><line x1="1" y1="1081" x2="991" y2="1081" /><line x1="1" y1="1" x2="1" y2="1081" /><line x1="111" y1="1" x2="111" y2="1081" /><line x1="221" y1="1" x2="221" y2="1081" /><line x1="331" y1="1" x2="331" y2="1081" /><line x1="441" y1="1" x2="441" y2="1081" /><line x1="551" y1="1" x2="551" y2="1081" /><line x1="661" y1="1" x2="661" y2="1081" /><line x1="771" y1="1" x2="771" y2="1081" /><line x1="881" y1="1" x2="881" y2="1081" /><line x1="991" y1="1" x2="991" y2="1081" /><circle cx="331" cy="361" r="8" /><circle cx="331" cy="721" r="8" /><circle cx="661" cy="361" r="8" /><circle cx="661" cy="721" r="8" /></svg>